<?xml version="1.0" encoding="utf-8"?>
<!-- Generator: Adobe Illustrator 16.0.0, SVG Export Plug-In . SVG Version: 6.00 Build 0)  -->
<!DOCTYPE svg PUBLIC "-//W3C//DTD SVG 1.1//EN" "http://www.w3.org/Graphics/SVG/1.1/DTD/svg11.dtd">
<svg version="1.1" id="Layer_1" xmlns="http://www.w3.org/2000/svg" xmlns:xlink="http://www.w3.org/1999/xlink" x="0px" y="0px"
	 width="250px" height="59.152px" viewBox="0 0 250 59.152" enable-background="new 0 0 250 59.152" xml:space="preserve">
<polygon fill="#053949" points="29.525,0 251.001,0 251.001,59.152 4.318,59.152 "/>
<g>
	<g>
		<path fill="#F9ED32" d="M85.059,18.656c2.982,0,5.534,1.056,7.656,3.172c2.114,2.122,3.173,4.674,3.173,7.657
			c0,2.98-1.059,5.534-3.173,7.657c-2.122,2.113-4.674,3.172-7.656,3.172h-8.915c-0.156,0-0.29-0.054-0.402-0.159
			c-0.106-0.112-0.158-0.247-0.158-0.401s0.052-0.286,0.158-0.391c0.113-0.113,0.247-0.17,0.402-0.17h8.915
			c2.679,0,4.966-0.948,6.863-2.845c1.896-1.897,2.845-4.186,2.845-6.863c0-2.68-0.949-4.968-2.845-6.864
			c-1.897-1.896-4.185-2.844-6.863-2.844h-8.355v14.806h3.49V23.816c0-0.154,0.053-0.289,0.158-0.401
			c0.113-0.105,0.248-0.159,0.402-0.159h4.305c1.713,0,3.176,0.607,4.388,1.821c1.221,1.221,1.83,2.688,1.83,4.402
			c0,1.715-0.609,3.183-1.83,4.402c-1.212,1.215-2.675,1.82-4.388,1.82h-8.915c-0.156,0-0.29-0.052-0.402-0.158
			c-0.106-0.112-0.158-0.248-0.158-0.401v-15.82l0.01-0.053l-0.01-0.054c0-0.154,0.052-0.29,0.158-0.401
			c0.113-0.105,0.247-0.158,0.402-0.158H85.059z M81.315,34.583h3.75c1.402,0,2.603-0.501,3.603-1.501
			c0.991-0.993,1.488-2.193,1.488-3.603s-0.497-2.609-1.488-3.604c-1-1-2.201-1.5-3.603-1.5h-3.75V34.583z"/>
		<path fill="#F9ED32" d="M102.685,24.367v2.263h6.821c0.155,0,0.289,0.053,0.402,0.158c0.106,0.113,0.159,0.247,0.159,0.402v4.59
			c0,0.154-0.053,0.288-0.159,0.401c-0.113,0.104-0.247,0.157-0.402,0.157h-6.821v2.265h11.378c0.157,0,0.29,0.053,0.402,0.159
			c0.106,0.111,0.16,0.246,0.16,0.4v4.59c0,0.154-0.054,0.289-0.16,0.401c-0.112,0.105-0.246,0.159-0.402,0.159H97.536
			c-0.155,0-0.29-0.054-0.402-0.159c-0.106-0.112-0.159-0.247-0.159-0.401V31.78c0-0.155,0.053-0.286,0.159-0.392
			c0.112-0.113,0.247-0.171,0.401-0.171h11.412V27.75H97.534c-0.154,0-0.289-0.057-0.401-0.17c-0.106-0.105-0.159-0.236-0.159-0.391
			v-7.975c0-0.154,0.053-0.29,0.159-0.401c0.113-0.105,0.247-0.158,0.402-0.158h16.528c0.157,0,0.29,0.053,0.402,0.158
			c0.106,0.112,0.16,0.247,0.16,0.401v4.59c0,0.154-0.054,0.288-0.16,0.4c-0.112,0.106-0.246,0.16-0.402,0.16h-11.378V24.367z
			 M101.565,26.63v-2.823c0-0.154,0.056-0.285,0.169-0.392c0.105-0.113,0.236-0.17,0.391-0.17h11.378v-3.468H98.096v6.853H101.565z
			 M102.125,35.725c-0.155,0-0.286-0.058-0.391-0.169c-0.113-0.106-0.169-0.237-0.169-0.393V32.34h-3.469v6.854h15.408v-3.469
			H102.125z"/>
		<path fill="#F9ED32" d="M122.013,24.367v2.263h6.821c0.154,0,0.289,0.053,0.402,0.158c0.105,0.113,0.158,0.247,0.158,0.402v4.59
			c0,0.154-0.053,0.288-0.158,0.401c-0.113,0.104-0.248,0.157-0.402,0.157h-6.821v2.265h11.377c0.156,0,0.289,0.053,0.402,0.159
			c0.107,0.111,0.158,0.246,0.158,0.4v4.59c0,0.154-0.051,0.289-0.158,0.401c-0.113,0.105-0.246,0.159-0.402,0.159h-16.529
			c-0.155,0-0.289-0.054-0.4-0.159c-0.107-0.112-0.16-0.247-0.16-0.401V31.78c0-0.155,0.053-0.286,0.159-0.392
			c0.113-0.113,0.247-0.171,0.401-0.171h11.412V27.75h-11.412c-0.154,0-0.288-0.057-0.401-0.17
			c-0.106-0.105-0.159-0.236-0.159-0.391v-7.975c0-0.154,0.053-0.29,0.16-0.401c0.112-0.105,0.246-0.158,0.4-0.158h16.529
			c0.156,0,0.289,0.053,0.402,0.158c0.107,0.112,0.158,0.247,0.158,0.401v4.59c0,0.154-0.051,0.288-0.158,0.4
			c-0.113,0.106-0.246,0.16-0.402,0.16h-11.377V24.367z M120.893,26.63v-2.823c0-0.154,0.056-0.285,0.169-0.392
			c0.105-0.113,0.235-0.17,0.391-0.17h11.378v-3.468h-15.408v6.853H120.893z M121.453,35.725c-0.156,0-0.286-0.058-0.391-0.169
			c-0.114-0.106-0.169-0.237-0.169-0.393V32.34h-3.469v6.854h15.408v-3.469H121.453z"/>
		<path fill="#F9ED32" d="M151.279,20.654c1.334,1.34,2,2.95,2,4.833c0,1.812-0.622,3.378-1.87,4.696
			c-1.25,1.311-2.772,2.02-4.572,2.126c-0.063,0.021-0.129,0.029-0.19,0.029h-5.304v7.414c0,0.154-0.057,0.289-0.17,0.401
			c-0.104,0.105-0.235,0.159-0.391,0.159h-4.591c-0.155,0-0.291-0.054-0.401-0.159c-0.106-0.112-0.158-0.247-0.158-0.401V31.78
			c0-0.155,0.052-0.286,0.158-0.392c0.11-0.113,0.246-0.171,0.401-0.171h10.101c0.058-0.014,0.104-0.021,0.146-0.021
			c1.58,0,2.926-0.557,4.041-1.67c1.121-1.121,1.683-2.468,1.683-4.04c0-1.579-0.562-2.926-1.683-4.041
			c-1.115-1.113-2.461-1.669-4.041-1.669h-9.688v6.853h3.469v-2.823c0-0.154,0.057-0.285,0.17-0.392
			c0.107-0.113,0.236-0.17,0.394-0.17l5.646,0.011c0.619,0,1.148,0.22,1.588,0.656c0.437,0.444,0.654,0.973,0.654,1.586
			c0,0.601-0.209,1.114-0.623,1.543c-0.41,0.432-0.91,0.664-1.502,0.699c-0.043,0.007-0.082,0.011-0.117,0.011h-10.236
			c-0.155,0-0.291-0.057-0.401-0.17c-0.106-0.105-0.158-0.235-0.158-0.391v-7.975c0-0.154,0.052-0.29,0.158-0.401
			c0.112-0.105,0.246-0.158,0.401-0.158h10.254C148.329,18.656,149.939,19.322,151.279,20.654z M140.221,32.34h-3.47v6.854h3.47
			V32.34z M141.343,26.63h5.033l0.054-0.011c0.311,0,0.573-0.109,0.793-0.328c0.219-0.218,0.327-0.481,0.327-0.793
			c0-0.311-0.108-0.575-0.327-0.794c-0.22-0.218-0.482-0.327-0.793-0.327l-5.087-0.01V26.63z"/>
		<path fill="#F9ED32" d="M167.548,18.656c2.981,0,5.535,1.056,7.656,3.172c2.114,2.122,3.174,4.674,3.174,7.657
			c0,2.98-1.06,5.534-3.174,7.657c-2.121,2.113-4.675,3.172-7.656,3.172h-8.916c-0.153,0-0.286-0.054-0.397-0.159
			c-0.107-0.112-0.16-0.247-0.16-0.401s0.053-0.286,0.16-0.391c0.111-0.113,0.244-0.17,0.397-0.17h8.916
			c2.681,0,4.968-0.948,6.865-2.845c1.896-1.897,2.844-4.186,2.844-6.863c0-2.68-0.946-4.968-2.844-6.864
			c-1.897-1.896-4.187-2.844-6.865-2.844h-8.354v14.806h3.49V23.816c0-0.154,0.053-0.289,0.158-0.401
			c0.111-0.105,0.246-0.159,0.402-0.159h4.303c1.713,0,3.178,0.607,4.391,1.821c1.22,1.221,1.828,2.688,1.828,4.402
			c0,1.715-0.608,3.183-1.828,4.402c-1.213,1.215-2.678,1.82-4.391,1.82h-8.916c-0.154,0-0.287-0.052-0.398-0.158
			c-0.106-0.112-0.159-0.248-0.159-0.401v-15.82l0.01-0.053l-0.01-0.054c0-0.154,0.053-0.29,0.159-0.401
			c0.111-0.105,0.244-0.158,0.398-0.158H167.548z M163.807,34.583h3.75c1.399,0,2.602-0.501,3.602-1.501
			c0.992-0.993,1.488-2.193,1.488-3.603s-0.496-2.609-1.488-3.604c-1-1-2.201-1.5-3.602-1.5h-3.75V34.583z"/>
		<path fill="#F9ED32" d="M180.577,40.314c-0.156,0-0.291-0.054-0.404-0.159c-0.104-0.112-0.157-0.247-0.157-0.401V19.216
			c0-0.154,0.053-0.29,0.157-0.401c0.113-0.105,0.248-0.158,0.402-0.158c0.155,0,0.284,0.053,0.391,0.158
			c0.113,0.112,0.17,0.247,0.17,0.401v19.978h3.49V19.216c0-0.154,0.054-0.29,0.16-0.401c0.112-0.105,0.248-0.158,0.403-0.158
			c0.15,0,0.281,0.053,0.396,0.158c0.105,0.112,0.16,0.247,0.16,0.401v20.538c0,0.154-0.053,0.289-0.16,0.401
			c-0.113,0.105-0.242,0.159-0.391,0.159H180.577z"/>
		<path fill="#F9ED32" d="M209.186,18.656c0.196,0,0.354,0.081,0.467,0.243c0.104,0.162,0.121,0.334,0.051,0.518l-8.238,20.548
			c-0.092,0.232-0.264,0.351-0.516,0.351c-0.072,0-0.143-0.016-0.213-0.042c-0.144-0.058-0.244-0.155-0.307-0.297
			c-0.058-0.141-0.058-0.281,0-0.423l7.932-19.775h-3.775l-8.133,20.188c-0.1,0.232-0.271,0.351-0.518,0.351
			c0.006,0-0.009,0-0.043,0c-0.261,0.014-0.441-0.104-0.539-0.351l-8.248-20.548c-0.07-0.183-0.051-0.355,0.063-0.518
			c0.105-0.162,0.258-0.243,0.455-0.243h4.98c0.254,0,0.426,0.115,0.518,0.348l5.277,13.167l5.299-13.167
			c0.092-0.232,0.264-0.348,0.518-0.348L209.186,18.656L209.186,18.656z M197.794,33.662l-5.571-13.885h-3.775l7.457,18.57
			L197.794,33.662z"/>
		<path fill="#F9ED32" d="M216.698,24.367v2.263h6.821c0.154,0,0.289,0.053,0.402,0.158c0.105,0.113,0.158,0.247,0.158,0.402v4.59
			c0,0.154-0.053,0.288-0.158,0.401c-0.113,0.104-0.248,0.157-0.402,0.157h-6.821v2.265h11.379c0.155,0,0.291,0.053,0.401,0.159
			c0.105,0.111,0.158,0.246,0.158,0.4v4.59c0,0.154-0.053,0.289-0.158,0.401c-0.11,0.105-0.246,0.159-0.401,0.159h-16.529
			c-0.153,0-0.289-0.054-0.399-0.159c-0.107-0.112-0.158-0.247-0.158-0.401V31.78c0-0.155,0.051-0.286,0.158-0.392
			c0.11-0.113,0.246-0.171,0.399-0.171h11.412V27.75h-11.412c-0.153,0-0.289-0.057-0.399-0.17c-0.107-0.105-0.158-0.236-0.158-0.391
			v-7.975c0-0.154,0.051-0.29,0.158-0.401c0.11-0.105,0.246-0.158,0.399-0.158h16.529c0.155,0,0.291,0.053,0.401,0.158
			c0.105,0.112,0.158,0.247,0.158,0.401v4.59c0,0.154-0.053,0.288-0.158,0.4c-0.11,0.106-0.246,0.16-0.401,0.16h-11.379V24.367z
			 M215.579,26.63v-2.823c0-0.154,0.055-0.285,0.168-0.392c0.106-0.113,0.235-0.17,0.394-0.17h11.377v-3.468h-15.408v6.853H215.579z
			 M216.141,35.725c-0.156,0-0.285-0.058-0.394-0.169c-0.113-0.106-0.168-0.237-0.168-0.393V32.34h-3.472v6.854h15.408v-3.469
			H216.141z"/>
	</g>
	<g>
		<path fill="#EA5B50" d="M53.556,24.979c0.264,0.07,0.493,0.203,0.687,0.396c0.176,0.158,0.335,0.379,0.476,0.661
			c0.141,0.282,0.211,0.645,0.211,1.084c0,0.74-0.189,1.507-0.568,2.3c-0.379,0.793-0.837,1.521-1.375,2.182
			c-0.538,0.661-1.11,1.208-1.718,1.64c-0.608,0.433-1.15,0.647-1.626,0.647c-0.105,0-0.185-0.01-0.238-0.026
			c-0.018,0-0.106-0.035-0.265-0.106c-0.158-0.068-0.238-0.229-0.238-0.475c0-0.159,0.07-0.349,0.211-0.568
			c0.141-0.221,0.423-0.393,0.846-0.516c0.176-0.053,0.44-0.273,0.793-0.662c0.353-0.387,0.696-0.846,1.031-1.374
			c0.334-0.528,0.63-1.071,0.886-1.626c0.255-0.555,0.383-1.009,0.383-1.362c0-0.404-0.176-0.607-0.529-0.607
			c-0.3,0-0.679,0.155-1.137,0.463c-0.458,0.309-0.912,0.705-1.362,1.188c-0.449,0.485-0.851,1.031-1.203,1.641
			c-0.353,0.606-0.582,1.211-0.688,1.811c-0.036-0.069-0.062-0.146-0.079-0.225c-0.018-0.08-0.027-0.172-0.027-0.277
			c0-0.104,0.009-0.186,0.027-0.237c-0.036,0.053-0.062,0.114-0.08,0.186c-0.053,0.141-0.079,0.309-0.079,0.502
			c0,0.158,0.026,0.33,0.079,0.516c0.053,0.187,0.159,0.384,0.317,0.596c0.035,0.089,0.105,0.185,0.211,0.29
			s0.159,0.248,0.159,0.424c0,0.141-0.071,0.269-0.211,0.383c-0.142,0.115-0.3,0.172-0.476,0.172c-0.406,0-0.736-0.092-0.991-0.276
			c-0.256-0.187-0.454-0.419-0.595-0.701c-0.141-0.281-0.242-0.595-0.304-0.938s-0.093-0.666-0.093-0.965
			c0-0.459,0.044-0.912,0.132-1.361s0.176-0.823,0.264-1.125c0.141-0.476,0.357-1.065,0.648-1.771s0.665-1.45,1.124-2.234
			c0.458-0.784,1.013-1.563,1.666-2.339c0.652-0.775,1.418-1.463,2.3-2.063c0.123-0.089,0.264-0.167,0.423-0.238
			c0.141-0.07,0.286-0.132,0.436-0.186c0.15-0.053,0.313-0.078,0.489-0.078c0.07,0,0.159,0.009,0.265,0.025
			c0.105,0.019,0.207,0.063,0.304,0.132c0.097,0.07,0.181,0.177,0.251,0.317c0.07,0.142,0.105,0.335,0.105,0.582
			c0,0.142-0.036,0.304-0.105,0.489c-0.071,0.185-0.221,0.365-0.45,0.542c-0.793,0.616-1.48,1.247-2.062,1.89
			c-0.582,0.644-1.075,1.229-1.48,1.758c-0.458,0.617-0.855,1.216-1.19,1.798c-0.194,0.301-0.361,0.6-0.502,0.899
			c0.211-0.317,0.467-0.67,0.767-1.058c0.299-0.389,0.634-0.745,1.004-1.071s0.762-0.6,1.177-0.819
			c0.414-0.22,0.841-0.331,1.282-0.331C53.106,24.874,53.344,24.909,53.556,24.979z"/>
		<path fill="#EA5B50" d="M65.473,29.553c-0.036,0.053-0.168,0.272-0.397,0.66c-0.229,0.389-0.529,0.819-0.899,1.296
			c-0.37,0.477-0.793,0.935-1.269,1.375c-0.476,0.439-0.97,0.74-1.482,0.898v0.264c0,0.088,0.004,0.187,0.013,0.291
			c0.009,0.105,0.013,0.229,0.013,0.371c0,0.457-0.027,0.925-0.08,1.4c0.107,0.018,0.214,0.025,0.32,0.025s0.203,0,0.291,0
			c0.37,0,0.714-0.034,1.031-0.104c0.317-0.071,0.59-0.194,0.82-0.37c0.017-0.018,0.043-0.035,0.079-0.053
			c0.035-0.019,0.062-0.035,0.079-0.053c0.017-0.019,0.044-0.027,0.08-0.027c0.07,0.018,0.105,0.08,0.105,0.186
			c0,0.211-0.035,0.449-0.105,0.714c-0.071,0.266-0.185,0.517-0.344,0.754s-0.37,0.438-0.634,0.596
			c-0.265,0.158-0.6,0.238-1.005,0.238c-0.282,0-0.57-0.027-0.864-0.08c-0.294-0.054-0.562-0.11-0.802-0.172
			c-0.241-0.063-0.441-0.123-0.602-0.187c-0.161-0.062-0.25-0.109-0.268-0.145c0.141,0.192,0.334,0.348,0.582,0.463
			c0.247,0.112,0.476,0.207,0.688,0.276c-0.088,0.177-0.229,0.41-0.423,0.7c-0.194,0.291-0.454,0.573-0.78,0.847
			c-0.327,0.272-0.732,0.512-1.217,0.714c-0.485,0.202-1.063,0.305-1.732,0.305c-0.723,0-1.3-0.105-1.732-0.317
			s-0.767-0.463-1.005-0.753c-0.237-0.291-0.396-0.6-0.476-0.926s-0.119-0.596-0.119-0.807c0-0.494,0.093-0.916,0.278-1.271
			c0.185-0.352,0.432-0.643,0.74-0.871c0.309-0.229,0.652-0.393,1.031-0.49c0.379-0.097,0.753-0.145,1.124-0.145
			c0.229,0,0.405,0.004,0.528,0.013c0.123,0.01,0.26,0.035,0.41,0.079c0.149,0.044,0.348,0.105,0.595,0.187
			c0.247,0.079,0.617,0.18,1.11,0.304c0.088-0.354,0.141-0.692,0.159-1.018c0.017-0.327,0.026-0.631,0.026-0.912
			c0-0.229-0.004-0.44-0.013-0.636c-0.009-0.193-0.022-0.359-0.04-0.503c-0.018-0.176-0.036-0.324-0.053-0.448
			c-0.405,0.459-0.851,0.847-1.335,1.163c-0.485,0.316-1,0.477-1.546,0.477c-0.458,0-0.815-0.088-1.071-0.265
			c-0.255-0.177-0.44-0.374-0.555-0.596c-0.115-0.22-0.185-0.432-0.211-0.634c-0.027-0.203-0.04-0.322-0.04-0.356
			c0-0.705,0.11-1.401,0.331-2.09c0.221-0.687,0.463-1.304,0.727-1.851c0.265-0.546,0.617-1.146,1.058-1.797
			c0.229-0.317,0.493-0.622,0.793-0.912c0.3-0.291,0.652-0.438,1.058-0.438c0.564,0,0.846,0.229,0.846,0.688
			c0,0.388-0.177,0.811-0.529,1.269c-0.388,0.564-0.74,1.11-1.058,1.64c-0.264,0.458-0.507,0.925-0.727,1.4
			c-0.221,0.477-0.331,0.883-0.331,1.217c0,0.194,0.049,0.349,0.146,0.463s0.261,0.172,0.491,0.172c0.337,0,0.682-0.146,1.037-0.437
			s0.7-0.635,1.037-1.03c0.336-0.396,0.638-0.798,0.904-1.203c0.266-0.405,0.479-0.731,0.638-0.979
			c0.124-0.212,0.252-0.418,0.385-0.622c0.133-0.202,0.262-0.392,0.386-0.567c0.141-0.194,0.273-0.388,0.396-0.582
			c0.194-0.265,0.387-0.502,0.582-0.714c0.176-0.177,0.37-0.34,0.582-0.489c0.211-0.149,0.432-0.226,0.661-0.226
			c0.299,0,0.516,0.08,0.647,0.238c0.132,0.159,0.198,0.344,0.198,0.555c0,0.441-0.194,0.927-0.582,1.454
			c-0.124,0.178-0.322,0.458-0.595,0.847c-0.273,0.388-0.555,0.806-0.846,1.256c-0.291,0.449-0.546,0.891-0.767,1.322
			c-0.221,0.432-0.331,0.762-0.331,0.99c0,0.194,0.097,0.29,0.291,0.29c0.176,0,0.392-0.101,0.648-0.304
			c0.255-0.202,0.52-0.449,0.793-0.74c0.273-0.29,0.538-0.604,0.793-0.938c0.255-0.334,0.472-0.644,0.648-0.925
			c0.035-0.054,0.079-0.114,0.132-0.186c0.035-0.035,0.08-0.075,0.132-0.119c0.052-0.044,0.123-0.065,0.211-0.065
			c0.123,0,0.22,0.04,0.291,0.118c0.07,0.079,0.106,0.163,0.106,0.252c0,0.105-0.022,0.208-0.066,0.304
			C65.547,29.373,65.507,29.465,65.473,29.553z M56.087,38.516c0.088,0.034,0.167,0.053,0.238,0.053c0.07,0,0.149,0,0.238,0
			c0.352,0,0.665-0.07,0.938-0.211c0.273-0.144,0.506-0.31,0.701-0.503c0.211-0.212,0.405-0.458,0.582-0.74
			c-0.406-0.194-0.793-0.384-1.163-0.568c-0.37-0.184-0.802-0.277-1.295-0.277c-0.124,0-0.265,0.014-0.423,0.04
			c-0.158,0.025-0.304,0.079-0.436,0.158c-0.132,0.079-0.247,0.193-0.344,0.345c-0.097,0.147-0.146,0.339-0.146,0.567
			c0,0.158,0.062,0.361,0.185,0.607S55.593,38.41,56.087,38.516z"/>
	</g>
</g>
</svg>
