<?xml version="1.0" encoding="utf-8"?>
<!-- Generator: Adobe Illustrator 16.0.0, SVG Export Plug-In . SVG Version: 6.00 Build 0)  -->
<!DOCTYPE svg PUBLIC "-//W3C//DTD SVG 1.1//EN" "http://www.w3.org/Graphics/SVG/1.1/DTD/svg11.dtd">
<svg version="1.1" id="Layer_1" xmlns="http://www.w3.org/2000/svg" xmlns:xlink="http://www.w3.org/1999/xlink" x="0px" y="0px"
	 width="250px" height="59.152px" viewBox="0 0 250 59.152" enable-background="new 0 0 250 59.152" xml:space="preserve">
<g>
	<rect fill="#EA5B50" width="64.314" height="59.151"/>
	<g>
		<path fill="#062B33" d="M39.149,51.272H25.614c-1.054,0-2.024-0.529-2.596-1.414c-0.572-0.886-0.654-1.988-0.22-2.949
			l5.326-11.789c0.766-1.695,2.397-2.749,4.257-2.749c1.86,0,3.492,1.053,4.258,2.749l5.326,11.789
			c0.434,0.961,0.352,2.063-0.22,2.949C41.173,50.743,40.202,51.272,39.149,51.272z M32.381,33.554
			c-1.389,0-2.607,0.787-3.179,2.053l-5.326,11.791c-0.272,0.601-0.223,1.265,0.135,1.819c0.358,0.556,0.942,0.873,1.603,0.873
			h13.535c0.659,0,1.244-0.317,1.602-0.872c0.358-0.556,0.408-1.22,0.136-1.82l-5.327-11.791
			C34.989,34.34,33.771,33.554,32.381,33.554z"/>
		<path fill="#062B33" d="M41.065,46.897H23.719c-0.327,0-0.591-0.265-0.591-0.592c0-0.326,0.265-0.591,0.591-0.591h17.346
			c0.326,0,0.591,0.265,0.591,0.591C41.656,46.633,41.391,46.897,41.065,46.897z"/>
		<path fill="#062B33" d="M30.949,41.24c-0.327,0-0.591-0.265-0.591-0.591c0-1.116,0.908-2.023,2.023-2.023
			c0.327,0,0.591,0.265,0.591,0.591c0,0.327-0.264,0.592-0.591,0.592c-0.463,0-0.841,0.377-0.841,0.841
			C31.54,40.976,31.276,41.24,30.949,41.24z"/>
		<path fill="#062B33" d="M32.381,44.574c-2.164,0-3.924-1.761-3.924-3.925s1.761-3.926,3.924-3.926
			c2.165,0,3.926,1.762,3.926,3.926S34.545,44.574,32.381,44.574z M32.381,37.907c-1.512,0-2.743,1.23-2.743,2.742
			c0,1.513,1.231,2.742,2.743,2.742c1.513,0,2.744-1.229,2.744-2.742C35.125,39.138,33.894,37.907,32.381,37.907z"/>
		<path fill="#062B33" d="M39.766,44.07h-2.02c-0.327,0-0.591-0.265-0.591-0.592c0-0.326,0.264-0.591,0.591-0.591h2.02
			c0.326,0,0.591,0.265,0.591,0.591C40.357,43.806,40.092,44.07,39.766,44.07z"/>
		<path fill="#062B33" d="M27.017,44.07h-2.02c-0.326,0-0.591-0.265-0.591-0.592c0-0.326,0.265-0.591,0.591-0.591h2.02
			c0.327,0,0.591,0.265,0.591,0.591C27.608,43.806,27.344,44.07,27.017,44.07z"/>
		<path fill="#062B33" d="M32.381,35.421c-0.327,0-0.59-0.265-0.59-0.591v-1.683l-9.143-13.195
			c-0.186-0.269-0.119-0.637,0.149-0.823c0.268-0.186,0.637-0.119,0.823,0.149l9.247,13.348c0.069,0.099,0.105,0.216,0.105,0.336
			v1.868C32.972,35.156,32.708,35.421,32.381,35.421z"/>
		<path fill="#062B33" d="M41.65,20.207H23.134c-0.326,0-0.591-0.265-0.591-0.592c0-6.443,4.419-11.684,9.849-11.684
			c5.432,0,9.85,5.241,9.85,11.684C42.242,19.942,41.977,20.207,41.65,20.207z M23.739,19.024h17.306
			c-0.253-5.517-4.038-9.91-8.654-9.91C27.777,9.114,23.993,13.507,23.739,19.024z"/>
		<path fill="#062B33" d="M36.253,20.207h-7.723c-0.327,0-0.591-0.265-0.591-0.592c0-5.664,1.561-11.684,4.452-11.684
			c2.893,0,4.453,6.02,4.453,11.684C36.844,19.942,36.58,20.207,36.253,20.207z M29.127,19.024h6.529
			c-0.108-5.711-1.771-9.91-3.265-9.91C30.899,9.114,29.236,13.313,29.127,19.024z"/>
		<path fill="#062B33" d="M32.381,33.554c-0.116,0-0.234-0.034-0.337-0.105c-0.268-0.187-0.334-0.555-0.148-0.822l9.269-13.348
			c0.187-0.269,0.555-0.336,0.823-0.148c0.268,0.186,0.335,0.555,0.148,0.823L32.867,33.3
			C32.752,33.465,32.568,33.554,32.381,33.554z"/>
		<path fill="#062B33" d="M33.813,33.759c-0.241,0-0.467-0.148-0.556-0.388c-0.112-0.306,0.044-0.646,0.351-0.759l14.889-5.483
			c0.305-0.114,0.646,0.043,0.759,0.35c0.113,0.306-0.043,0.646-0.35,0.76l-14.888,5.484C33.95,33.747,33.88,33.759,33.813,33.759z"
			/>
		<path fill="#062B33" d="M48.7,28.275c-0.117,0-0.235-0.035-0.339-0.108L36.839,20.1c-0.211-0.148-0.303-0.417-0.225-0.663
			s0.306-0.414,0.564-0.414h3.866c-0.106-2.29-0.833-4.485-2.073-6.236c-0.107-0.151-0.137-0.343-0.082-0.52
			c0.056-0.177,0.191-0.317,0.365-0.378c3.056-1.091,6.177-0.759,8.564,0.912c4.448,3.116,5.061,9.943,1.366,15.221
			C49.07,28.187,48.887,28.275,48.7,28.275z M39.054,20.207l9.49,6.645c2.957-4.664,2.377-10.434-1.404-13.082
			c-1.883-1.318-4.314-1.668-6.763-0.996c1.207,1.983,1.865,4.381,1.865,6.841c0,0.327-0.265,0.592-0.591,0.592H39.054z"/>
		<path fill="#062B33" d="M44.28,25.179c-0.121,0-0.239-0.037-0.339-0.108l-6.326-4.429c-0.128-0.09-0.216-0.227-0.243-0.381
			c-0.027-0.154,0.008-0.314,0.098-0.442c0.13-0.187,0.263-0.371,0.396-0.553c0.111-0.152,0.289-0.242,0.478-0.242h2.702
			c-0.042-0.893-0.176-1.773-0.402-2.624c-0.055-0.205,0.004-0.422,0.154-0.572c2.936-2.917,5.561-4.048,7.022-3.026
			c1.082,0.758,1.29,2.443,0.603,4.873c-0.623,2.196-1.921,4.772-3.658,7.252c-0.089,0.128-0.227,0.215-0.381,0.243
			C44.348,25.176,44.314,25.179,44.28,25.179z M39.054,20.207l5.076,3.554c1.494-2.219,2.606-4.478,3.154-6.409
			c0.515-1.819,0.462-3.159-0.144-3.582c-0.711-0.499-2.651,0.135-5.269,2.662c0.246,1.034,0.371,2.103,0.371,3.183
			c0,0.327-0.265,0.592-0.591,0.592H39.054z"/>
		<path fill="#062B33" d="M32.382,33.554c-0.188,0-0.372-0.089-0.486-0.254l-7.807-11.24c-0.186-0.268-0.12-0.637,0.149-0.823
			c0.269-0.187,0.637-0.12,0.823,0.148l7.806,11.241c0.187,0.268,0.12,0.636-0.148,0.822C32.615,33.52,32.498,33.554,32.382,33.554z
			"/>
		<path fill="#062B33" d="M30.917,33.747c-0.067,0-0.137-0.012-0.204-0.036l-14.856-5.472c-0.306-0.114-0.463-0.454-0.35-0.76
			c0.113-0.307,0.453-0.463,0.76-0.35l14.855,5.472c0.307,0.113,0.464,0.453,0.351,0.76C31.385,33.599,31.158,33.747,30.917,33.747z
			"/>
		<path fill="#062B33" d="M16.063,28.275c-0.187,0-0.37-0.088-0.486-0.252c-3.695-5.278-3.082-12.105,1.367-15.221
			c2.387-1.671,5.508-2.004,8.563-0.912c0.175,0.062,0.31,0.202,0.365,0.378c0.056,0.177,0.026,0.369-0.081,0.52
			c-1.239,1.75-1.966,3.946-2.073,6.236h3.867c0.259,0,0.486,0.167,0.564,0.414c0.078,0.246-0.014,0.514-0.225,0.663l-11.522,8.067
			C16.298,28.24,16.179,28.275,16.063,28.275z M17.622,13.771c-3.78,2.647-4.36,8.417-1.404,13.082l9.491-6.645h-2.597
			c-0.326,0-0.591-0.265-0.591-0.592c0-2.459,0.657-4.858,1.865-6.841C21.937,12.102,19.505,12.452,17.622,13.771L17.622,13.771z"/>
		<path fill="#062B33" d="M20.483,25.179c-0.187,0-0.37-0.087-0.485-0.252c-3.249-4.64-5.423-10.466-3.055-12.125
			c1.461-1.021,4.085,0.108,7.021,3.026c0.15,0.15,0.208,0.367,0.155,0.572c-0.227,0.851-0.362,1.731-0.403,2.624h2.702
			c0.189,0,0.366,0.09,0.477,0.242c0.134,0.183,0.267,0.367,0.397,0.553c0.091,0.128,0.125,0.288,0.098,0.442
			c-0.027,0.155-0.115,0.291-0.243,0.381l-6.326,4.429C20.718,25.145,20.6,25.179,20.483,25.179z M17.622,13.771
			c-1.222,0.856-0.176,5.25,3.011,9.991l5.076-3.554h-2.597c-0.326,0-0.591-0.265-0.591-0.592c0-1.081,0.125-2.149,0.371-3.183
			C20.274,13.905,18.334,13.272,17.622,13.771L17.622,13.771z"/>
	</g>
	<g>
		<g>
			<path fill="#FFFFFF" d="M80.539,30.368l1.17-2.066c0.199-0.323,0.672-0.274,0.847-0.15c0.099,0.05,1.891,1.37,3.535,1.37
				c0.996,0,1.717-0.623,1.717-1.494c0-1.046-0.871-1.842-2.564-2.515c-2.141-0.846-4.829-2.514-4.829-5.501
				c0-2.465,1.917-4.954,5.75-4.954c2.589,0,4.58,1.319,5.327,1.868c0.299,0.174,0.249,0.622,0.15,0.796l-1.27,1.917
				c-0.175,0.273-0.623,0.498-0.846,0.323c-0.225-0.124-2.042-1.493-3.56-1.493c-0.896,0-1.568,0.598-1.568,1.269
				c0,0.921,0.747,1.619,2.713,2.415c1.942,0.772,5.029,2.29,5.029,5.676c0,2.564-2.216,5.153-5.876,5.153
				c-3.236,0-5.028-1.345-5.601-1.917C80.415,30.815,80.34,30.716,80.539,30.368z"/>
			<path fill="#FFFFFF" d="M95.423,15.779c0-0.248,0.199-0.473,0.473-0.473h6c3.062,0,5.576,2.489,5.576,5.501
				c0,3.087-2.514,5.602-5.552,5.602h-2.613v5.849c0,0.25-0.224,0.474-0.473,0.474h-2.938c-0.274,0-0.473-0.224-0.473-0.474V15.779z
				 M101.672,22.775c1.07,0,1.966-0.846,1.966-1.967c0-1.045-0.896-1.842-1.966-1.842h-2.365v3.809H101.672z"/>
			<path fill="#FFFFFF" d="M110.258,15.779c0-0.248,0.199-0.473,0.473-0.473h2.963c0.249,0,0.473,0.225,0.473,0.473v13.294h5.925
				c0.273,0,0.473,0.225,0.473,0.474v2.712c0,0.25-0.2,0.474-0.473,0.474h-9.36c-0.273,0-0.473-0.224-0.473-0.474V15.779z"/>
			<path fill="#FFFFFF" d="M121.807,32.085l7.792-16.753c0.075-0.15,0.249-0.274,0.423-0.274h0.248c0.175,0,0.35,0.125,0.424,0.274
				l7.793,16.753c0.148,0.324-0.051,0.647-0.424,0.647h-2.764c-0.448,0-0.646-0.149-0.871-0.622l-0.896-1.967h-6.772l-0.896,1.991
				c-0.124,0.3-0.399,0.598-0.896,0.598h-2.739C121.856,32.732,121.657,32.409,121.807,32.085z M132.037,26.758l-1.892-4.107h-0.024
				l-1.867,4.107H132.037z"/>
			<path fill="#FFFFFF" d="M139.777,30.368l1.17-2.066c0.199-0.323,0.672-0.274,0.847-0.15c0.099,0.05,1.892,1.37,3.534,1.37
				c0.996,0,1.718-0.623,1.718-1.494c0-1.046-0.871-1.842-2.563-2.515c-2.141-0.846-4.83-2.514-4.83-5.501
				c0-2.465,1.917-4.954,5.751-4.954c2.589,0,4.58,1.319,5.327,1.868c0.299,0.174,0.249,0.622,0.149,0.796l-1.27,1.917
				c-0.175,0.273-0.622,0.498-0.847,0.323c-0.225-0.124-2.041-1.493-3.561-1.493c-0.896,0-1.566,0.598-1.566,1.269
				c0,0.921,0.746,1.619,2.713,2.415c1.941,0.772,5.028,2.29,5.028,5.676c0,2.564-2.216,5.153-5.876,5.153
				c-3.236,0-5.027-1.345-5.6-1.917C139.652,30.815,139.578,30.716,139.777,30.368z"/>
			<path fill="#FFFFFF" d="M154.662,15.779c0-0.248,0.224-0.473,0.473-0.473h2.961c0.275,0,0.475,0.225,0.475,0.473v6.273h7.119
				v-6.273c0-0.248,0.199-0.473,0.474-0.473h2.962c0.248,0,0.473,0.225,0.473,0.473v16.479c0,0.25-0.225,0.474-0.473,0.474h-2.962
				c-0.274,0-0.474-0.224-0.474-0.474v-6.546h-7.119v6.546c0,0.25-0.199,0.474-0.475,0.474h-2.961c-0.249,0-0.473-0.224-0.473-0.474
				V15.779z"/>
			<path fill="#FFFFFF" d="M174.126,15.779c0-0.248,0.198-0.473,0.447-0.473h6.074c4.806,0,8.738,3.908,8.738,8.688
				c0,4.829-3.933,8.737-8.738,8.737h-6.074c-0.249,0-0.447-0.224-0.447-0.474V15.779z M180.398,29.049
				c2.813,0,4.855-2.216,4.855-5.054c0-2.813-2.042-5.029-4.855-5.029h-2.39v10.083H180.398z"/>
			<path fill="#FFFFFF" d="M200.336,15.058c4.979,0,8.961,4.009,8.961,8.987c0,4.979-3.982,8.937-8.961,8.937
				s-8.938-3.958-8.938-8.937C191.398,19.066,195.357,15.058,200.336,15.058z M200.336,28.998c2.738,0,4.979-2.24,4.979-4.954
				c0-2.738-2.24-5.004-4.979-5.004c-2.713,0-4.954,2.266-4.954,5.004C195.382,26.758,197.623,28.998,200.336,28.998z"/>
			<path fill="#FFFFFF" d="M210.889,15.904c-0.1-0.349,0.099-0.598,0.447-0.598h2.913c0.198,0,0.397,0.175,0.448,0.349l2.141,8.439
				h0.1l3.858-8.762c0.075-0.15,0.224-0.274,0.423-0.274h0.449c0.223,0,0.373,0.125,0.423,0.274l3.858,8.762h0.1l2.141-8.439
				c0.05-0.174,0.249-0.349,0.447-0.349h2.914c0.348,0,0.547,0.249,0.447,0.598l-4.705,16.729c-0.049,0.199-0.249,0.349-0.447,0.349
				h-0.398c-0.175,0-0.35-0.124-0.424-0.273l-4.555-10.182h-0.076l-4.529,10.182c-0.075,0.149-0.25,0.273-0.424,0.273h-0.398
				c-0.199,0-0.398-0.149-0.447-0.349L210.889,15.904z"/>
			<path fill="#FFFFFF" d="M234.883,15.506c0-0.249,0.224-0.449,0.473-0.449h0.623l9.932,9.56h0.025v-8.838
				c0-0.248,0.199-0.473,0.474-0.473h2.986c0.249,0,0.474,0.225,0.474,0.473v16.754c0,0.249-0.225,0.448-0.474,0.448h-0.397
				c-0.074,0-0.273-0.074-0.324-0.124l-9.833-9.883h-0.024v9.285c0,0.25-0.199,0.474-0.474,0.474h-2.962
				c-0.248,0-0.473-0.224-0.473-0.474L234.883,15.506z"/>
		</g>
		<g>
			<path fill="#EA5B50" d="M82.947,41.29c0-0.1,0.079-0.189,0.189-0.189h2.339c1.225,0,2.23,0.996,2.23,2.2
				c0,1.235-1.005,2.239-2.22,2.239h-1.245v2.34c0,0.1-0.09,0.189-0.189,0.189h-0.917c-0.11,0-0.189-0.09-0.189-0.189V41.29z
				 M85.396,44.326c0.558,0,1.026-0.448,1.026-1.036c0-0.547-0.468-0.965-1.026-0.965h-1.154v2.001H85.396z"/>
			<path fill="#EA5B50" d="M92.915,41.001c1.991,0,3.583,1.604,3.583,3.594c0,1.992-1.592,3.574-3.583,3.574
				c-1.992,0-3.575-1.582-3.575-3.574C89.34,42.604,90.923,41.001,92.915,41.001z M92.915,46.875c1.254,0,2.289-1.026,2.289-2.28
				s-1.035-2.3-2.289-2.3c-1.255,0-2.28,1.046-2.28,2.3S91.66,46.875,92.915,46.875z"/>
			<path fill="#EA5B50" d="M101.877,41.001c1.992,0,3.584,1.604,3.584,3.594c0,1.992-1.592,3.574-3.584,3.574
				s-3.574-1.582-3.574-3.574C98.303,42.604,99.886,41.001,101.877,41.001z M101.877,46.875c1.254,0,2.29-1.026,2.29-2.28
				s-1.036-2.3-2.29-2.3c-1.254,0-2.28,1.046-2.28,2.3S100.623,46.875,101.877,46.875z"/>
			<path fill="#EA5B50" d="M107.764,41.29c0-0.1,0.079-0.189,0.189-0.189h0.916c0.1,0,0.19,0.09,0.19,0.189v5.585h2.538
				c0.11,0,0.189,0.09,0.189,0.188v0.816c0,0.1-0.08,0.189-0.189,0.189h-3.644c-0.11,0-0.189-0.09-0.189-0.189V41.29z"/>
			<path fill="#EA5B50" d="M116.985,41.29c0-0.1,0.08-0.189,0.18-0.189h2.359c1.922,0,3.495,1.563,3.495,3.475
				c0,1.931-1.573,3.494-3.495,3.494h-2.359c-0.1,0-0.18-0.09-0.18-0.189V41.29z M119.405,46.854c1.294,0,2.24-0.976,2.24-2.279
				c0-1.294-0.946-2.27-2.24-2.27h-1.135v4.549H119.405z"/>
			<path fill="#EA5B50" d="M125.331,41.29c0-0.1,0.08-0.189,0.189-0.189h4.052c0.109,0,0.188,0.09,0.188,0.189v0.816
				c0,0.1-0.079,0.188-0.188,0.188h-2.947v1.634h2.459c0.1,0,0.189,0.089,0.189,0.188v0.826c0,0.11-0.09,0.189-0.189,0.189h-2.459
				v1.742h2.947c0.109,0,0.188,0.09,0.188,0.188v0.816c0,0.1-0.079,0.189-0.188,0.189h-4.052c-0.11,0-0.189-0.09-0.189-0.189V41.29z
				"/>
			<path fill="#EA5B50" d="M131.277,47.811l3.096-6.7c0.03-0.06,0.08-0.109,0.168-0.109h0.101c0.1,0,0.14,0.05,0.169,0.109
				l3.066,6.7c0.061,0.13-0.02,0.259-0.168,0.259h-0.867c-0.148,0-0.219-0.06-0.289-0.199l-0.487-1.075h-2.978l-0.487,1.075
				c-0.04,0.1-0.129,0.199-0.288,0.199h-0.867C131.297,48.069,131.217,47.94,131.277,47.811z M135.578,45.69l-0.996-2.191h-0.029
				l-0.977,2.191H135.578z"/>
			<path fill="#EA5B50" d="M139.781,41.29c0-0.1,0.08-0.189,0.189-0.189h0.916c0.1,0,0.189,0.09,0.189,0.189v5.585h2.538
				c0.109,0,0.188,0.09,0.188,0.188v0.816c0,0.1-0.079,0.189-0.188,0.189h-3.644c-0.109,0-0.189-0.09-0.189-0.189V41.29z"/>
			<path fill="#EA5B50" d="M145.807,41.29c0-0.1,0.079-0.189,0.188-0.189h4.052c0.109,0,0.189,0.09,0.189,0.189v0.816
				c0,0.1-0.08,0.188-0.189,0.188h-2.946v1.634h2.459c0.099,0,0.188,0.089,0.188,0.188v0.826c0,0.11-0.09,0.189-0.188,0.189h-2.459
				v1.742h2.946c0.109,0,0.189,0.09,0.189,0.188v0.816c0,0.1-0.08,0.189-0.189,0.189h-4.052c-0.109,0-0.188-0.09-0.188-0.189V41.29z
				"/>
			<path fill="#EA5B50" d="M152.658,41.29c0-0.1,0.079-0.189,0.188-0.189h2.847c1.195,0,2.172,0.956,2.172,2.141
				c0,0.916-0.608,1.663-1.475,2.011l1.364,2.528c0.069,0.13,0,0.289-0.169,0.289h-1.045c-0.09,0-0.14-0.05-0.16-0.09l-1.324-2.638
				h-1.104v2.538c0,0.1-0.09,0.189-0.188,0.189h-0.917c-0.109,0-0.188-0.09-0.188-0.189V41.29z M155.585,44.276
				c0.527,0,0.985-0.458,0.985-1.015c0-0.528-0.458-0.967-0.985-0.967h-1.623v1.981H155.585z"/>
			<path fill="#EA5B50" d="M162.865,41.34c-0.039-0.14,0.04-0.239,0.18-0.239h0.916c0.08,0,0.159,0.07,0.18,0.139l1.035,3.974h0.039
				l1.584-4.103c0.02-0.06,0.069-0.109,0.168-0.109h0.18c0.1,0,0.15,0.05,0.17,0.109l1.592,4.103h0.04l1.016-3.974
				c0.021-0.068,0.1-0.139,0.18-0.139h0.915c0.141,0,0.22,0.1,0.18,0.239l-1.882,6.689c-0.02,0.081-0.099,0.14-0.179,0.14h-0.16
				c-0.088,0-0.148-0.049-0.169-0.109l-1.782-4.51h-0.049l-1.762,4.51c-0.03,0.061-0.07,0.109-0.17,0.109h-0.159
				c-0.079,0-0.159-0.059-0.179-0.14L162.865,41.34z"/>
			<path fill="#EA5B50" d="M173.402,41.29c0-0.1,0.078-0.189,0.188-0.189h4.052c0.109,0,0.189,0.09,0.189,0.189v0.816
				c0,0.1-0.08,0.188-0.189,0.188h-2.946v1.634h2.458c0.1,0,0.189,0.089,0.189,0.188v0.826c0,0.11-0.09,0.189-0.189,0.189h-2.458
				v1.742h2.946c0.109,0,0.189,0.09,0.189,0.188v0.816c0,0.1-0.08,0.189-0.189,0.189h-4.052c-0.11,0-0.188-0.09-0.188-0.189V41.29z"
				/>
			<path fill="#EA5B50" d="M180.253,41.29c0-0.1,0.079-0.189,0.189-0.189h2.28c1.185,0,2.101,0.797,2.101,1.842
				c0,0.767-0.628,1.363-1.095,1.583c0.527,0.17,1.294,0.706,1.294,1.623c0,1.114-0.956,1.921-2.171,1.921h-2.409
				c-0.11,0-0.189-0.09-0.189-0.189V41.29z M182.604,44.028c0.508,0,0.855-0.398,0.855-0.896s-0.348-0.847-0.855-0.847h-1.065v1.743
				H182.604z M182.742,46.895c0.498,0,0.896-0.389,0.896-0.905c0-0.498-0.498-0.867-1.016-0.867h-1.085v1.772H182.742z"/>
			<path fill="#EA5B50" d="M190.59,41.29c0-0.1,0.08-0.189,0.189-0.189h2.34c1.225,0,2.23,0.996,2.23,2.2
				c0,1.235-1.006,2.239-2.221,2.239h-1.244v2.34c0,0.1-0.09,0.189-0.189,0.189h-0.916c-0.109,0-0.189-0.09-0.189-0.189V41.29z
				 M193.039,44.326c0.559,0,1.025-0.448,1.025-1.036c0-0.547-0.467-0.965-1.025-0.965h-1.154v2.001H193.039z"/>
			<path fill="#EA5B50" d="M197.482,41.29c0-0.1,0.079-0.189,0.188-0.189h0.917c0.099,0,0.189,0.09,0.189,0.189v5.585h2.537
				c0.109,0,0.189,0.09,0.189,0.188v0.816c0,0.1-0.08,0.189-0.189,0.189h-3.644c-0.109,0-0.188-0.09-0.188-0.189V41.29z"/>
			<path fill="#EA5B50" d="M202.92,47.811l3.096-6.7c0.029-0.06,0.08-0.109,0.17-0.109h0.1c0.099,0,0.139,0.05,0.168,0.109
				l3.066,6.7c0.061,0.13-0.02,0.259-0.168,0.259h-0.867c-0.149,0-0.219-0.06-0.288-0.199l-0.489-1.075h-2.976l-0.487,1.075
				c-0.041,0.1-0.129,0.199-0.289,0.199h-0.866C202.939,48.069,202.859,47.94,202.92,47.811z M207.221,45.69l-0.996-2.191h-0.029
				l-0.977,2.191H207.221z"/>
			<path fill="#EA5B50" d="M211.992,42.295h-1.523c-0.109,0-0.189-0.089-0.189-0.188V41.29c0-0.1,0.08-0.189,0.189-0.189h4.351
				c0.109,0,0.188,0.09,0.188,0.189v0.816c0,0.1-0.079,0.188-0.188,0.188h-1.523v5.585c0,0.1-0.09,0.189-0.189,0.189h-0.926
				c-0.1,0-0.188-0.09-0.188-0.189V42.295z"/>
			<path fill="#EA5B50" d="M217.041,41.29c0-0.1,0.079-0.189,0.189-0.189h4.052c0.108,0,0.188,0.09,0.188,0.189v0.816
				c0,0.1-0.08,0.188-0.188,0.188h-2.947v1.872h2.46c0.1,0,0.188,0.09,0.188,0.189v0.816c0,0.099-0.089,0.189-0.188,0.189h-2.46
				v2.518c0,0.1-0.089,0.189-0.188,0.189h-0.916c-0.11,0-0.189-0.09-0.189-0.189V41.29z"/>
			<path fill="#EA5B50" d="M226.729,41.001c1.991,0,3.585,1.604,3.585,3.594c0,1.992-1.594,3.574-3.585,3.574
				s-3.573-1.582-3.573-3.574C223.156,42.604,224.738,41.001,226.729,41.001z M226.729,46.875c1.255,0,2.29-1.026,2.29-2.28
				s-1.035-2.3-2.29-2.3c-1.254,0-2.279,1.046-2.279,2.3S225.476,46.875,226.729,46.875z"/>
			<path fill="#EA5B50" d="M232.616,41.29c0-0.1,0.079-0.189,0.19-0.189h2.847c1.194,0,2.17,0.956,2.17,2.141
				c0,0.916-0.608,1.663-1.474,2.011l1.363,2.528c0.07,0.13,0,0.289-0.168,0.289h-1.046c-0.089,0-0.14-0.05-0.159-0.09l-1.324-2.638
				h-1.105v2.538c0,0.1-0.089,0.189-0.188,0.189h-0.915c-0.111,0-0.19-0.09-0.19-0.189V41.29z M235.543,44.276
				c0.527,0,0.986-0.458,0.986-1.015c0-0.528-0.459-0.967-0.986-0.967h-1.622v1.981H235.543z"/>
			<path fill="#EA5B50" d="M240.972,41.15c0.01-0.08,0.069-0.149,0.179-0.149h0.16c0.079,0,0.139,0.04,0.169,0.1l2.19,4.699
				c0.02,0,0.02,0,0.029,0l2.191-4.699c0.029-0.06,0.078-0.1,0.168-0.1h0.16c0.109,0,0.168,0.069,0.179,0.149l1.175,6.69
				c0.029,0.139-0.051,0.229-0.18,0.229h-0.906c-0.089,0-0.168-0.08-0.188-0.149l-0.587-3.773c-0.01,0-0.03,0-0.03,0l-1.742,3.913
				c-0.021,0.061-0.08,0.109-0.169,0.109h-0.18c-0.09,0-0.139-0.049-0.17-0.109l-1.762-3.913c0,0-0.02,0-0.029,0l-0.578,3.773
				c-0.01,0.069-0.09,0.149-0.179,0.149h-0.896c-0.13,0-0.209-0.09-0.189-0.229L240.972,41.15z"/>
		</g>
	</g>
</g>
</svg>
